<?xml version="1.0" standalone="no"?>
<!DOCTYPE svg PUBLIC "-//W3C//DTD SVG 20010904//EN"
 "http://www.w3.org/TR/2001/REC-SVG-20010904/DTD/svg10.dtd">
<svg version="1.0" xmlns="http://www.w3.org/2000/svg"
 width="700.000000pt" height="700.000000pt" viewBox="0 0 700.000000 700.000000"
 preserveAspectRatio="xMidYMid meet">
<metadata>
Created by potrace 1.11, written by Peter Selinger 2001-2013
</metadata>
<g transform="translate(0.000000,700.000000) scale(0.100000,-0.100000)"
fill="#000000" stroke="none">
<path d="M3110 6980 c-165 -24 -258 -46 -405 -97 -527 -183 -969 -559 -1201
-1022 -49 -98 -116 -280 -129 -349 -3 -15 -7 -38 -10 -52 -23 -114 -26 -285
-8 -399 36 -224 136 -413 311 -588 52 -51 98 -93 102 -93 5 0 15 -6 22 -13 25
-25 133 -94 218 -140 153 -83 405 -171 605 -212 44 -9 89 -18 99 -21 17 -3 53
-8 208 -29 39 -6 127 -14 223 -20 86 -6 406 -6 495 0 81 6 175 14 218 20 181
24 255 37 357 61 11 3 34 8 50 10 59 11 328 105 421 149 411 192 661 480 735
850 14 69 17 248 7 350 -16 150 -88 365 -178 531 -112 205 -289 417 -474 569
-112 93 -92 78 -211 157 -200 133 -481 255 -700 304 -230 50 -545 65 -755 34z"/>
<path d="M1385 3935 c-5 -2 -29 -9 -51 -15 -25 -6 -58 -26 -83 -50 -117 -113
-154 -313 -155 -815 0 -199 9 -511 19 -640 1 -22 6 -85 9 -140 4 -55 8 -118
10 -140 3 -22 7 -76 11 -120 3 -44 8 -96 10 -115 2 -19 7 -62 10 -95 3 -33 8
-71 10 -85 2 -14 7 -54 10 -90 4 -36 9 -73 11 -84 2 -10 6 -44 10 -75 3 -31 8
-65 10 -76 3 -11 7 -36 10 -55 14 -93 47 -263 65 -335 63 -251 130 -345 244
-345 77 0 132 48 192 169 23 47 42 81 43 75 1 -28 174 -248 275 -349 143 -144
265 -236 455 -341 105 -58 305 -132 445 -163 116 -26 124 -28 245 -40 147 -16
484 -2 570 24 8 2 31 7 50 10 54 9 238 64 305 92 176 74 329 163 470 276 123
98 329 327 404 450 12 20 26 37 30 37 4 0 13 -16 20 -36 55 -152 157 -230 257
-197 47 16 81 49 117 114 49 91 102 297 142 564 9 55 17 111 20 125 11 72 19
142 30 240 3 30 8 71 10 90 2 19 6 61 9 92 18 180 22 225 31 363 3 50 8 113
10 140 24 275 25 996 1 1120 -2 11 -7 43 -11 70 -22 157 -90 279 -182 325 -44
23 -59 25 -173 24 -115 0 -129 -2 -176 -27 l-52 -26 -56 20 c-161 56 -376 44
-740 -42 -303 -72 -492 -109 -646 -127 -123 -14 -442 -7 -580 14 -72 10 -256
46 -285 54 -16 5 -43 11 -60 13 -16 3 -57 12 -90 20 -408 107 -679 128 -851
68 l-56 -20 -49 25 c-42 22 -65 27 -157 30 -59 2 -111 1 -117 -1z"/>
</g>
</svg>
