<?xml version="1.0" encoding="UTF-8" standalone="no"?> <svg xmlns="http://www.w3.org/2000/svg" viewBox="0 0 64 64"><defs><style>.cls-1{fill:#fff;}.cls-1,.cls-2{stroke:#54596e;stroke-linecap:round;stroke-linejoin:round;stroke-width:2px;}.cls-2,.cls-3{fill:#54596e;}.cls-3{opacity:0.1;}.cls-4{fill:#f99;}.cls-5{fill:#55a6ff;}</style></defs><title>Walle-female</title><g id="Walle-female"><path class="cls-1" d="M48.72,16.17C48.72,9,40.79,1,31,1S13.28,9,13.28,16.17,21.21,27,31,27,48.72,23.35,48.72,16.17Z"/><path class="cls-2" d="M44,15.34c0-4.46-5.82-9.41-13-9.41s-13,5-13,9.41,5.82,6.72,13,6.72S44,19.8,44,15.34Z"/><path class="cls-1" d="M49,39C49,23,40.94,31,31,31S13,23,13,39s8.06,24,18,24S49,55,49,39Z"/><path class="cls-3" d="M31,54c-8.92,0-16.3-6.45-17.73-19.34A30.11,30.11,0,0,0,13,39c0,16,8.06,24,18,24s18-8,18-24a30.11,30.11,0,0,0-.27-4.32C47.3,47.55,39.92,54,31,54Z"/><circle class="cls-4" cx="24" cy="38" r="2"/><path class="cls-1" d="M17,39c0-7.73-1.34-10-3-10s-3-.73-3,7,1.34,21,3,21S17,46.73,17,39Z"/><path class="cls-1" d="M45,39c0-7.73,1.34-10,3-10s3-.73,3,7-1.34,21-3,21S45,46.73,45,39Z"/><ellipse class="cls-5" cx="36" cy="15" rx="3.7" ry="2.47" transform="translate(-2.98 16.14) rotate(-24.3)"/><ellipse class="cls-5" cx="26" cy="15" rx="2.47" ry="3.7" transform="translate(1.63 32.53) rotate(-65.7)"/></g></svg>